<?xml version="1.0" encoding="UTF-8"?>
<svg id="Layer_2" xmlns="http://www.w3.org/2000/svg" viewBox="0 0 545.48 262.09">
  <defs>
    <style>.cls-1{fill:#fff;}.cls-2{fill:#56bf81;}</style>
  </defs>
  <g id="Layer_1-2">
    <g>
      <path class="cls-2"
        d="m53.36,258.93c-1.91,1.91-4.54,2.87-7.88,2.87H10.74c-3.35,0-5.97-.95-7.88-2.87-1.91-1.91-2.87-4.53-2.87-7.88V10.74c0-3.34.95-5.97,2.87-7.88C4.77.96,7.4,0,10.74,0h105.65c18.62,0,35.1,3.82,49.42,11.46,14.33,7.64,25.43,18.39,33.31,32.23,7.88,13.85,11.82,29.61,11.82,47.27,0,18.86-4.78,35.7-14.32,50.5-9.55,14.81-22.56,25.67-39.04,32.59l10.03,12.89c4.53,5.73,10.62,13.55,18.26,23.46,7.64,9.91,17.31,22.62,29.01,38.14,1.91,2.15,2.87,4.42,2.87,6.8,0,1.91-.78,3.46-2.33,4.66-1.56,1.2-3.76,1.79-6.63,1.79h-42.98c-5.5,0-9.91-2.03-13.25-6.09-18.15-23.16-37.37-48.35-57.66-75.57h-38.68v70.91c0,3.35-.96,5.97-2.87,7.88Zm63.03-127.85c10.5,0,19.52-3.64,27.04-10.92,7.52-7.28,11.28-17.01,11.28-29.19s-3.04-21.61-9.13-29.72c-6.09-8.11-15.82-12.18-29.19-12.18h-60.17v82.01h60.17Z" />
      <polygon class="cls-2"
        points="514.29 51.76 515.73 60.14 510.01 71.7 505.39 83.54 503.67 88.31 503.08 91.82 150.99 245.19 146.21 243.77 143.65 241.14 131.65 236.86 119.35 230.92 115.12 225.55 514.29 51.76" />
      <path class="cls-1" d="m111.56,253.94c-.47-.18-.94-.39-1.39-.64.45.24.92.45,1.39.64Z" />
      <path class="cls-1"
        d="m129.1,250.29l-7.84,3.42c-.62.27-1.26.49-1.9.65.64-.17,1.27-.39,1.89-.66l7.85-3.41Z" />
      <polygon class="cls-1" points="130.28 239.21 130.28 239.22 122.3 236.08 130.28 239.21" />
      <g>
        <path class="cls-1"
          d="m508.95,84.9h0s12.81-5.57,12.81-5.57l-12.81,5.57Zm12.51-31.79h0c.58-.24,1.17-.45,1.76-.61-.59.16-1.18.36-1.76.61Zm3.27-.9c.64-.08,1.29-.11,1.93-.08-.64-.04-1.28,0-1.93.08Zm-11.29,21.28l-3.22,8.19,3.23-8.19,8.01-20.37-8.02,20.37Z" />
        <path class="cls-1"
          d="m544.07,56.85c-4.11-9.99-15.61-14.61-25.47-10.31l-110.01,47.9-.4.17-43.16,18.8-7.37,3.2-90.02,39.18-5.69,2.49-43.18,18.79-.13.06-109.7,47.76c-9.72,4.22-14.74,15.46-10.69,25.25,4.12,9.99,15.63,14.59,25.48,10.3l110.13-47.95.28-.12,43.24-18.81,138.09-60.13,117.91-51.33c9.71-4.24,14.74-15.46,10.69-25.25ZM129.1,250.29l-7.84,3.42c-.62.27-1.26.49-1.9.65-.21.05-.43.11-.64.15h-.01c-.43.09-.86.16-1.3.2-1.08.11-2.16.08-3.22-.08-.65-.1-1.28-.25-1.9-.44-.25-.08-.49-.16-.73-.25-.47-.18-.94-.39-1.39-.64-.22-.12-.44-.25-.66-.38h-.01c-.34-.22-.67-.46-.99-.7-.5-.39-.96-.82-1.4-1.28-.36-.39-.69-.8-.99-1.24-.16-.22-.3-.45-.44-.68-3.79-6.38-1.03-14.44,5.54-17.3l7.95,3.13,3.13,1.23,7.98,3.13,12.74,5.02-13.92,6.06ZM499.66,88.97l-79.47,34.58-4.16,1.82-27.08,11.79-116.27,50.63-42.39,18.44-.03.02-77.93,33.94c-4.43-1.75-13.51-5.32-22.58-8.88l-9.22-3.64,100.11-43.58,42.37-18.44,106.68-46.45,42.35-18.44.05-.02,100.06-43.57-3.61,9.22c-3.59,9.07-7.15,18.17-8.88,22.58Zm36.08-17.44c-.37.47-.77.92-1.21,1.34-1.08,1.06-2.37,1.93-3.81,2.56l-8.91,3.88-.05.02-12.81,5.58h0s1.27-3.23,1.27-3.23l3.22-8.19,8.02-20.37h0c.58-.26,1.17-.46,1.76-.62h.01c.5-.13,1-.23,1.5-.29.65-.09,1.29-.12,1.93-.08.47.01.94.05,1.4.13.68.09,1.34.25,1.98.46,1.81.59,3.47,1.6,4.84,2.98.34.34.66.71.96,1.09t.01.01c.29.39.57.79.83,1.22h0c.51.87.92,1.81,1.22,2.82h0c1.1,3.8.15,7.72-2.16,10.69Z" />
        <path class="cls-1"
          d="m538.6,72.24c-.46.58-.95,1.14-1.5,1.66-1.34,1.31-2.93,2.39-4.71,3.17l-11.02,4.8-.06.02-15.84,6.9h0s1.57-3.99,1.57-3.99l3.98-10.13,9.92-25.19h0c.72-.32,1.45-.57,2.18-.77h.01c.62-.16,1.24-.28,1.86-.36.8-.11,1.6-.15,2.39-.1.58.01,1.16.06,1.73.16.84.11,1.66.31,2.45.57,2.24.73,4.29,1.98,5.99,3.69.42.42.82.88,1.19,1.35t.01.01c.36.48.7.98,1.03,1.51h0c.63,1.08,1.14,2.24,1.51,3.49h0c1.36,4.7.19,9.55-2.67,13.22Z" />
        <path class="cls-1"
          d="m146.49,244.4l-16.39,7.14-9.24,4.02c-.73.32-1.47.58-2.23.78-.25.06-.51.13-.75.18h-.01c-.51.11-1.01.19-1.53.24-1.27.13-2.54.09-3.79-.09-.77-.12-1.51-.29-2.24-.52-.29-.09-.58-.19-.86-.29-.55-.22-1.11-.47-1.64-.75-.26-.14-.52-.29-.78-.45h-.01c-.4-.26-.79-.54-1.17-.82-.59-.46-1.13-.97-1.65-1.51-.41-.46-.8-.94-1.17-1.46-.19-.26-.35-.53-.52-.8-4.46-7.51-1.21-17,6.52-20.37l9.36,3.69,3.69,1.45,9.4,3.7,15,5.9Z" />
      </g>
      <path class="cls-2"
        d="m430.69,179.77l-.1.36c-6.05,18.35-15.86,34.02-29.12,46.56-11.49,12.62-25.5,22.17-41.62,28.33-10.94,4.2-22.45,6.52-34.09,6.98-12.79.5-25.69-1.25-38.02-5.28l-.34.02-.65-.36c-22.62-7.58-42.36-22.48-55.58-42.03l-3.55-5.66c-.19-.29-.34-.5-.43-.67-.46-.84-.94-1.63-1.37-2.47-.14-.22-.26-.41-.36-.65-.77-1.42-1.56-2.97-2.37-4.7-2.35-4.94-4.32-10-5.88-15.06l-.17-.6c-.36-1.22-.7-2.37-.98-3.55-.29-.96-.53-2.01-.77-3.05-5.01-21.57-3.33-43.83,4.85-64.5l.05-.1s.02-.07.05-.12l.05-.17c11.18-27.83,32.58-49.22,60.35-60.38,18.42-7.46,38.62-9.62,58.34-6.28,29.39,4.97,55.7,21.81,72.18,46.23.6.82,1.2,1.78,1.78,2.71.77,1.15,1.49,2.33,2.18,3.57.26.41.5.82.72,1.25l.19.34c.72,1.25,1.44,2.61,2.18,4.15.6,1.13,1.15,2.3,1.7,3.48.31.65.58,1.34.84,2.11l.05.05.31.98c0,.07.02.14.05.22l.05.17c.43,1.56.67,3.14.74,4.68.17,4.08-3.53,6.07-6.24,7.53-.86.48-4.37-2.25-4.68-1.85-1.73,2.93-2.57,3.45-5.49,2.3-.5-.19.07,3.67-.58,3.98l-1.3.65-.5-.14-3.96-5.64.1,2.49c-.77.31-4.73.79-5.52,1.13-4.34,1.73-6.74,4.85-11.39,4.13-.94-.12.22,5.11-.5,5.04-5.28-.62-7.75-1.51-11.08-8.01-.36-.7-.7-1.32-1.08-1.97-.91-1.66-1.92-3.21-2.95-4.68-.74-1.08-1.54-2.09-2.42-3.21-.6-.72-1.27-1.49-1.94-2.21-15.09-16.53-39.27-22.48-60.14-14.9-23.68,8.56-38.79,32-36.75,57.02.07,1.01.17,1.99.31,2.97.17,1.22.38,2.52.67,3.96.74,3.43,1.78,6.76,3.09,9.96,1.58,3.81,3.6,7.46,6,10.84.24.34.62.84,1.08,1.44,0,.02.02.05.05.07l3.29,3.89c15.59,16.91,40.3,22.67,61.51,14.34,13.1-5.16,23.68-14.94,29.84-27.56l.17-.31c1.49-2.4,2.85-5.06,4.01-7.82l.07-.22c2.18-4.41,4.92-7.34,8.13-8.76,2.54-1.1,5.49-1.42,8.71-.86l26.68,3.17c3.41.38,6.21,1.44,8.28,3.12,1.27,1.03,2.28,2.37,2.97,3.96,1.1,2.47,1.2,5.61.31,9.6Z" />
      <circle class="cls-1" cx="311.31" cy="157.78" r="5.79" />
      <circle class="cls-1" cx="331.03" cy="149.19" r="5.79" />
    </g>
  </g>
</svg>