<svg version="1.1" id="Layer_1" xmlns="http://www.w3.org/2000/svg" xmlns:xlink="http://www.w3.org/1999/xlink" x="0px" y="0px"
	 width="100%" viewBox="0 0 396 228" enable-background="new 0 0 396 228" xml:space="preserve">
<path fill="#6FF1F5" opacity="1.000000" stroke="none" 
	d="
M290.000000,229.000000 
	C193.333359,229.000000 97.166725,229.000000 1.000064,229.000000 
	C1.000043,153.000046 1.000043,77.000099 1.000021,1.000116 
	C132.999908,1.000077 264.999817,1.000077 396.999817,1.000039 
	C396.999878,76.999886 396.999878,152.999771 396.999939,228.999832 
	C361.500000,229.000000 326.000000,229.000000 290.000000,229.000000 
M278.203522,108.015167 
	C278.489441,107.995888 278.775391,107.976616 279.473969,108.513580 
	C288.065857,123.131432 296.525665,137.830521 305.406586,152.270630 
	C306.598572,154.208801 309.825012,155.616959 312.268860,155.901718 
	C316.338043,156.375854 319.416992,154.191589 321.499542,150.395218 
	C328.769623,137.142136 336.216431,123.985916 343.609314,110.800316 
	C344.443298,109.312859 345.361176,107.872459 346.240143,106.410248 
	C347.158142,120.723885 347.115845,134.655502 347.171112,148.586731 
	C347.217926,160.384537 347.347382,172.182297 347.500488,183.979294 
	C347.573669,189.618225 349.092804,191.157974 354.599182,191.234909 
	C359.597198,191.304764 364.598785,191.329468 369.595581,191.223190 
	C375.879089,191.089539 377.014832,189.618210 376.978851,183.390411 
	C376.720825,138.761841 376.524902,94.132881 376.359528,49.503857 
	C376.339722,44.160473 374.009766,41.434330 368.597595,41.305832 
	C364.437836,41.207062 360.267548,41.300011 356.109039,41.475971 
	C352.168976,41.642689 349.447144,43.486755 347.399933,47.091846 
	C339.270660,61.407162 330.817505,75.538078 322.595001,89.801117 
	C318.898773,96.212761 315.463013,102.774567 311.432709,110.138611 
	C309.238159,106.213379 307.495148,103.218002 305.866302,100.161774 
	C297.895142,85.205116 290.324066,70.020294 281.898499,55.324951 
	C273.541107,40.748486 273.168396,40.962170 256.485870,41.257744 
	C250.349640,41.366467 248.271683,43.735184 248.308243,49.880680 
	C248.400314,65.355476 248.414673,80.831764 248.312363,96.306473 
	C248.117432,125.787956 247.856293,155.269196 247.514923,184.749283 
	C247.474838,188.210220 248.832184,190.306015 252.124344,190.676132 
	C255.743896,191.083054 259.420837,191.121399 263.070801,191.089920 
	C275.313751,190.984406 275.774261,190.958847 276.136108,178.837204 
	C276.841034,155.223236 276.974731,131.592209 278.203522,108.015167 
M182.501007,100.010132 
	C176.582230,100.010132 170.663452,100.010132 164.598206,100.010132 
	C164.598206,89.668182 164.598206,80.096687 164.598206,70.377975 
	C181.656631,70.377975 198.435120,70.206978 215.206650,70.473282 
	C220.866669,70.563148 222.893997,69.463943 223.257050,63.798500 
	C223.575378,58.830971 223.783890,53.854965 223.953125,48.879715 
	C224.136902,43.477009 221.935150,41.245552 216.551437,41.250301 
	C213.889267,41.252651 211.227112,41.315956 208.564972,41.314255 
	C186.401596,41.300072 164.238159,41.295616 142.074875,41.240196 
	C137.998260,41.229996 135.747726,43.280903 135.458893,47.162224 
	C135.189011,50.788761 135.466705,54.452785 135.406357,58.098705 
	C135.034348,80.576454 134.515793,103.052505 134.280609,125.531570 
	C134.076797,145.010956 134.304321,164.495071 134.062622,183.973633 
	C134.007370,188.427155 135.763062,190.645752 139.884048,190.932098 
	C144.529541,191.254913 149.203781,191.176361 153.865921,191.243958 
	C161.299911,191.351746 163.925842,189.112076 164.060226,181.671722 
	C164.239838,171.726242 163.996887,161.773453 163.964157,151.823715 
	C163.939285,144.261612 163.959229,136.699387 163.959229,128.658905 
	C166.383453,128.658905 168.181915,128.658966 169.980392,128.658905 
	C185.145187,128.658371 200.310013,128.649078 215.474792,128.663895 
	C218.932449,128.667267 221.853882,128.121445 222.047028,123.727699 
	C222.287918,118.247147 222.728592,112.774757 222.928680,107.293198 
	C223.131882,101.726608 221.467133,100.054756 215.992706,100.042999 
	C205.161987,100.019745 194.331238,100.019745 182.501007,100.010132 
M93.413712,69.964783 
	C96.401436,70.132843 99.397659,70.210258 102.374992,70.489250 
	C107.406769,70.960739 109.657814,69.278969 109.939919,64.290352 
	C110.249687,58.812477 110.449203,53.321205 110.455231,47.835506 
	C110.460426,43.107830 108.437996,41.236443 103.649757,41.233761 
	C79.328392,41.220142 55.006989,41.228954 30.685631,41.258774 
	C23.791006,41.267231 21.911846,43.083523 21.800249,50.212082 
	C21.547626,66.349556 21.353346,82.488594 21.257942,98.627724 
	C21.088573,127.278961 21.089808,155.931503 20.815727,184.581558 
	C20.769915,189.370529 23.433615,190.746033 27.198298,191.017014 
	C31.676022,191.339325 36.187157,191.198853 40.683849,191.255966 
	C47.760780,191.345840 50.541546,189.154190 50.747868,182.016968 
	C51.035358,172.071777 50.698738,162.109100 50.662308,152.153793 
	C50.634113,144.448273 50.656677,136.742584 50.656677,128.660004 
	C53.256527,128.660004 55.067459,128.660065 56.878387,128.660004 
	C71.873718,128.659515 86.869133,128.687698 101.864334,128.643509 
	C107.419769,128.627136 108.559128,127.401306 108.792381,121.933380 
	C108.997932,117.114777 109.360092,112.302704 109.553093,107.483749 
	C109.786339,101.659706 108.165894,100.046333 102.328720,100.043610 
	C86.834518,100.036392 71.340302,100.029701 55.846134,99.999481 
	C54.407955,99.996674 52.970100,99.827766 51.557320,99.737602 
	C51.557320,89.661209 51.557320,79.957077 51.557320,69.964737 
	C65.465965,69.964737 78.951126,69.964737 93.413712,69.964783 
z"/>
<path fill="#020404" opacity="1.000000" stroke="none" 
	d="
M277.345032,107.968254 
	C276.974731,131.592209 276.841034,155.223236 276.136108,178.837204 
	C275.774261,190.958847 275.313751,190.984406 263.070801,191.089920 
	C259.420837,191.121399 255.743896,191.083054 252.124344,190.676132 
	C248.832184,190.306015 247.474838,188.210220 247.514923,184.749283 
	C247.856293,155.269196 248.117432,125.787956 248.312363,96.306473 
	C248.414673,80.831764 248.400314,65.355476 248.308243,49.880680 
	C248.271683,43.735184 250.349640,41.366467 256.485870,41.257744 
	C273.168396,40.962170 273.541107,40.748486 281.898499,55.324951 
	C290.324066,70.020294 297.895142,85.205116 305.866302,100.161774 
	C307.495148,103.218002 309.238159,106.213379 311.432709,110.138611 
	C315.463013,102.774567 318.898773,96.212761 322.595001,89.801117 
	C330.817505,75.538078 339.270660,61.407162 347.399933,47.091846 
	C349.447144,43.486755 352.168976,41.642689 356.109039,41.475971 
	C360.267548,41.300011 364.437836,41.207062 368.597595,41.305832 
	C374.009766,41.434330 376.339722,44.160473 376.359528,49.503857 
	C376.524902,94.132881 376.720825,138.761841 376.978851,183.390411 
	C377.014832,189.618210 375.879089,191.089539 369.595581,191.223190 
	C364.598785,191.329468 359.597198,191.304764 354.599182,191.234909 
	C349.092804,191.157974 347.573669,189.618225 347.500488,183.979294 
	C347.347382,172.182297 347.217926,160.384537 347.171112,148.586731 
	C347.115845,134.655502 347.158142,120.723885 346.240143,106.410248 
	C345.361176,107.872459 344.443298,109.312859 343.609314,110.800316 
	C336.216431,123.985916 328.769623,137.142136 321.499542,150.395218 
	C319.416992,154.191589 316.338043,156.375854 312.268860,155.901718 
	C309.825012,155.616959 306.598572,154.208801 305.406586,152.270630 
	C296.525665,137.830521 288.065857,123.131432 279.285278,107.913620 
	C278.526123,106.943878 277.955688,106.574081 277.385284,106.204285 
	C277.371887,106.792274 277.358459,107.380264 277.345032,107.968254 
z"/>
<path fill="#020505" opacity="1.000000" stroke="none" 
	d="
M183.000748,100.010132 
	C194.331238,100.019745 205.161987,100.019745 215.992706,100.042999 
	C221.467133,100.054756 223.131882,101.726608 222.928680,107.293198 
	C222.728592,112.774757 222.287918,118.247147 222.047028,123.727699 
	C221.853882,128.121445 218.932449,128.667267 215.474792,128.663895 
	C200.310013,128.649078 185.145187,128.658371 169.980392,128.658905 
	C168.181915,128.658966 166.383453,128.658905 163.959229,128.658905 
	C163.959229,136.699387 163.939285,144.261612 163.964157,151.823715 
	C163.996887,161.773453 164.239838,171.726242 164.060226,181.671722 
	C163.925842,189.112076 161.299911,191.351746 153.865921,191.243958 
	C149.203781,191.176361 144.529541,191.254913 139.884048,190.932098 
	C135.763062,190.645752 134.007370,188.427155 134.062622,183.973633 
	C134.304321,164.495071 134.076797,145.010956 134.280609,125.531570 
	C134.515793,103.052505 135.034348,80.576454 135.406357,58.098705 
	C135.466705,54.452785 135.189011,50.788761 135.458893,47.162224 
	C135.747726,43.280903 137.998260,41.229996 142.074875,41.240196 
	C164.238159,41.295616 186.401596,41.300072 208.564972,41.314255 
	C211.227112,41.315956 213.889267,41.252651 216.551437,41.250301 
	C221.935150,41.245552 224.136902,43.477009 223.953125,48.879715 
	C223.783890,53.854965 223.575378,58.830971 223.257050,63.798500 
	C222.893997,69.463943 220.866669,70.563148 215.206650,70.473282 
	C198.435120,70.206978 181.656631,70.377975 164.598206,70.377975 
	C164.598206,80.096687 164.598206,89.668182 164.598206,100.010132 
	C170.663452,100.010132 176.582230,100.010132 183.000748,100.010132 
z"/>
<path fill="#020505" opacity="1.000000" stroke="none" 
	d="
M92.924995,69.964760 
	C78.951126,69.964737 65.465965,69.964737 51.557320,69.964737 
	C51.557320,79.957077 51.557320,89.661209 51.557320,99.737602 
	C52.970100,99.827766 54.407955,99.996674 55.846134,99.999481 
	C71.340302,100.029701 86.834518,100.036392 102.328720,100.043610 
	C108.165894,100.046333 109.786339,101.659706 109.553093,107.483749 
	C109.360092,112.302704 108.997932,117.114777 108.792381,121.933380 
	C108.559128,127.401306 107.419769,128.627136 101.864334,128.643509 
	C86.869133,128.687698 71.873718,128.659515 56.878387,128.660004 
	C55.067459,128.660065 53.256527,128.660004 50.656677,128.660004 
	C50.656677,136.742584 50.634113,144.448273 50.662308,152.153793 
	C50.698738,162.109100 51.035358,172.071777 50.747868,182.016968 
	C50.541546,189.154190 47.760780,191.345840 40.683849,191.255966 
	C36.187157,191.198853 31.676022,191.339325 27.198298,191.017014 
	C23.433615,190.746033 20.769915,189.370529 20.815727,184.581558 
	C21.089808,155.931503 21.088573,127.278961 21.257942,98.627724 
	C21.353346,82.488594 21.547626,66.349556 21.800249,50.212082 
	C21.911846,43.083523 23.791006,41.267231 30.685631,41.258774 
	C55.006989,41.228954 79.328392,41.220142 103.649757,41.233761 
	C108.437996,41.236443 110.460426,43.107830 110.455231,47.835506 
	C110.449203,53.321205 110.249687,58.812477 109.939919,64.290352 
	C109.657814,69.278969 107.406769,70.960739 102.374992,70.489250 
	C99.397659,70.210258 96.401436,70.132843 92.924995,69.964760 
z"/>
<path fill="#489C9E" opacity="1.000000" stroke="none" 
	d="
M277.774292,107.991714 
	C277.358459,107.380264 277.371887,106.792274 277.385284,106.204285 
	C277.955688,106.574081 278.526123,106.943878 279.078918,107.635498 
	C278.775391,107.976616 278.489441,107.995888 277.774292,107.991714 
z"/>
</svg>