<svg version="1.1" id="Layer_1" xmlns="http://www.w3.org/2000/svg" xmlns:xlink="http://www.w3.org/1999/xlink" x="0px" y="0px"
	 width="100%" viewBox="0 0 1080 228" enable-background="new 0 0 1080 228" xml:space="preserve">
<path fill="#6FF0F5" opacity="1.000000" stroke="none" 
	d="
M789.000000,229.000000 
	C526.000061,229.000000 263.500092,229.000000 1.000106,229.000000 
	C1.000070,153.000061 1.000070,77.000122 1.000035,1.000136 
	C360.999878,1.000091 720.999756,1.000091 1080.999756,1.000045 
	C1080.999756,76.999863 1080.999756,152.999725 1080.999878,228.999786 
	C983.833313,229.000000 886.666687,229.000000 789.000000,229.000000 
M581.270386,121.741623 
	C582.386719,117.050392 583.373962,112.323975 584.641907,107.674095 
	C589.890625,88.425919 595.302734,69.221970 600.476318,49.953827 
	C601.933594,44.526508 599.174988,41.361652 593.467102,41.269428 
	C589.802246,41.210209 586.117126,41.493618 582.473511,41.208866 
	C573.240906,40.487343 571.129639,44.710342 569.370056,51.164467 
	C562.989197,74.570015 556.902954,98.055870 550.708191,121.512123 
	C549.788330,124.995346 548.882874,128.482376 547.970764,131.967651 
	C546.657837,131.206482 546.327820,130.643677 546.177063,130.036392 
	C540.082092,105.492622 534.011353,80.942848 527.919922,56.398209 
	C523.690369,39.355717 523.445618,41.165745 507.790924,41.247318 
	C498.758179,41.294384 496.744202,43.007542 494.439667,51.892563 
	C487.757843,77.653946 480.967896,103.387314 474.189728,129.123611 
	C473.918823,130.152145 473.334473,131.098145 472.751740,132.407135 
	C472.208160,131.562393 471.822296,131.195984 471.713806,130.760437 
	C468.497498,117.852188 465.327759,104.932343 462.110565,92.024323 
	C458.567871,77.810303 455.100647,63.575806 451.364868,49.412395 
	C449.836975,43.619778 446.865875,41.523312 440.882385,41.298473 
	C436.556061,41.135914 432.218689,41.229954 427.886688,41.263851 
	C421.229431,41.315945 419.229340,43.934559 420.968262,50.408367 
	C426.623474,71.462242 432.303711,92.509407 437.990936,113.554665 
	C444.200439,136.532654 450.454956,159.498520 456.624115,182.487320 
	C457.744263,186.661499 459.858612,190.383713 464.198090,190.831100 
	C469.937042,191.422760 475.823059,191.094360 481.602631,190.626801 
	C486.305847,190.246307 488.863922,186.804291 490.068970,182.528305 
	C491.420959,177.730835 492.393341,172.827744 493.666595,168.006454 
	C498.593750,149.348816 503.571289,130.704498 508.544128,112.058983 
	C508.883301,110.787239 509.338226,109.546356 509.739349,108.291130 
	C511.586365,110.713028 512.416565,113.028801 513.058594,115.395630 
	C518.588562,135.782150 523.905518,156.228531 529.651855,176.553650 
	C533.693481,190.849426 533.948120,190.777435 548.683350,191.166779 
	C560.279846,191.473206 563.087280,189.314484 565.996887,178.403198 
	C570.966797,159.765625 576.055908,141.159836 581.270386,121.741623 
M313.723816,125.829430 
	C318.599670,134.141479 323.506927,142.435303 328.341736,150.771164 
	C332.440857,157.838531 340.888336,158.126877 344.990997,151.062393 
	C350.494354,141.586105 355.644012,131.905075 361.016357,122.351799 
	C364.030701,116.991547 367.187988,111.711670 370.280884,106.395584 
	C371.158752,124.977280 371.126923,143.121323 371.173828,161.265182 
	C371.193573,168.898178 371.327667,176.531937 371.507446,184.163055 
	C371.638794,189.738281 373.141846,191.173950 378.785767,191.237045 
	C383.951385,191.294800 389.122498,191.367020 394.283447,191.197693 
	C399.747559,191.018402 401.046997,189.449646 401.017975,184.197006 
	C400.769623,139.228516 400.543396,94.259895 400.340942,49.291176 
	C400.322021,45.088715 398.758972,41.727303 394.365204,41.489262 
	C388.748474,41.184967 383.066040,41.593430 377.449554,42.106716 
	C375.871613,42.250927 373.831726,43.479870 373.012512,44.825455 
	C365.748810,56.756184 358.616608,68.770058 351.639160,80.870995 
	C346.251831,90.214218 341.142609,99.717789 335.442078,109.993011 
	C333.355194,106.345261 331.579681,103.418365 329.972076,100.401978 
	C321.921356,85.296501 314.289642,69.952736 305.785492,55.108150 
	C297.503235,40.650917 297.118164,40.871601 280.236023,41.258747 
	C279.902832,41.266388 279.569427,41.265247 279.236145,41.268597 
	C274.704865,41.314102 272.487946,43.814240 272.395599,48.134548 
	C272.328308,51.284988 272.857666,54.446941 272.812012,57.599285 
	C272.580536,73.583061 272.121704,89.564247 271.979767,105.548447 
	C271.745941,131.872116 271.760773,158.198074 271.496094,184.521301 
	C271.455353,188.572632 273.274353,190.489517 276.874023,190.866516 
	C280.170746,191.211823 283.521606,191.142212 286.846527,191.098770 
	C299.177246,190.937637 299.645081,190.932617 300.155304,178.557465 
	C300.943665,159.437164 301.035980,140.287720 301.381592,121.149872 
	C301.467957,116.366852 301.394501,111.580940 301.394501,106.796356 
	C301.699554,106.814156 302.004639,106.831955 302.309692,106.849747 
	C305.993927,112.962067 309.678131,119.074394 313.723816,125.829430 
M720.123169,137.500076 
	C720.234009,125.850182 720.361816,114.200417 720.451782,102.550362 
	C720.590637,84.566986 720.712769,66.583473 720.820984,48.599895 
	C720.847778,44.141670 718.516541,41.774822 714.121643,41.609459 
	C708.796143,41.409084 703.460693,41.208920 698.136230,41.321999 
	C693.054565,41.429920 690.811157,44.165390 690.878601,49.394703 
	C691.041809,62.051662 691.244263,74.708961 691.269104,87.366447 
	C691.278748,92.292778 690.853149,97.219955 690.625549,102.153778 
	C676.887817,102.153778 663.656372,102.153778 650.091370,102.153778 
	C650.091370,100.993782 650.088501,100.188896 650.091919,99.384048 
	C650.161804,82.729980 650.235168,66.075920 650.301086,49.421833 
	C650.324036,43.628040 648.871155,41.887455 643.135620,41.558094 
	C638.149719,41.271778 633.140991,41.210419 628.146484,41.294315 
	C622.649109,41.386658 620.025330,44.617157 620.569275,50.060467 
	C620.882690,53.197044 621.229797,56.355534 621.182800,59.498501 
	C620.971558,73.648849 620.475220,87.795937 620.358765,101.946472 
	C620.134094,129.266800 620.211121,156.590073 619.880005,183.908691 
	C619.817078,189.098328 622.354492,190.817734 626.668213,191.078384 
	C632.146790,191.409454 637.650330,191.312286 643.133362,191.590454 
	C647.771301,191.825760 649.453735,189.311584 649.472961,185.194931 
	C649.546143,169.549469 649.559753,153.903717 649.594482,138.258072 
	C649.598389,136.489716 649.594971,134.721359 649.594971,132.521179 
	C662.605469,132.521179 674.898560,132.437073 687.185974,132.663605 
	C688.298889,132.684113 690.316772,134.696259 690.326355,135.797348 
	C690.462646,151.441406 690.497009,167.091507 690.165100,182.731857 
	C690.038635,188.691269 691.086853,190.672958 697.204102,191.086578 
	C702.679871,191.456818 708.184692,191.379501 713.674622,191.563126 
	C717.946289,191.705978 719.665710,189.526093 719.694153,185.448944 
	C719.803528,169.799072 719.974915,154.149658 720.123169,137.500076 
M859.747070,184.211914 
	C860.140259,189.932571 861.312622,191.096466 868.183899,191.179794 
	C880.847656,191.333344 893.514832,191.180817 906.179749,191.270889 
	C917.502136,191.351410 928.833618,191.354385 940.141174,191.847443 
	C946.236023,192.113205 948.498840,191.069580 949.215637,184.853729 
	C949.745972,180.254700 949.378113,175.556961 949.511597,170.906113 
	C949.689880,164.696548 947.402588,162.573059 941.216187,162.620575 
	C925.223755,162.743439 909.229370,162.615540 893.236816,162.736221 
	C890.107849,162.759827 889.256653,161.570679 889.313782,158.606369 
	C889.471191,150.443420 889.627380,142.263885 889.264404,134.114059 
	C889.065247,129.641541 890.483704,128.477127 894.867065,128.552322 
	C910.194580,128.815262 925.529419,128.639954 940.861450,128.664368 
	C944.334351,128.669891 947.258118,128.117188 947.463379,123.747520 
	C947.728821,118.098480 948.176270,112.455505 948.323730,106.804146 
	C948.460693,101.550209 946.830505,100.054703 941.433655,100.046600 
	C926.102539,100.023598 910.771423,100.030693 895.440308,100.002930 
	C893.691772,99.999763 891.943542,99.850616 890.322205,99.775078 
	C890.322205,89.544830 890.322205,79.974670 890.322205,70.338310 
	C907.327271,70.338310 923.957092,70.165955 940.579895,70.432747 
	C946.319946,70.524872 948.381165,69.516968 948.778625,63.867649 
	C949.151550,58.565845 949.305420,53.241398 949.342346,47.925434 
	C949.372986,43.511658 947.154114,41.103447 942.538574,41.230717 
	C939.709778,41.308720 936.878723,41.329575 934.048645,41.327469 
	C912.051392,41.311108 890.053955,41.234619 868.056885,41.291462 
	C862.376587,41.306137 859.633362,44.830643 860.351318,50.422234 
	C860.709778,53.213943 861.014771,56.043190 860.976013,58.850384 
	C860.659180,81.831436 860.150513,104.810188 859.911377,127.791840 
	C859.718994,146.282257 859.820923,164.775726 859.747070,184.211914 
M747.542603,53.567509 
	C747.188660,81.381302 746.773254,109.194511 746.505554,137.009140 
	C746.362793,151.835739 746.675964,166.668610 746.393921,181.491257 
	C746.236084,189.788193 747.015564,191.127411 755.462891,191.216049 
	C766.460938,191.331467 777.462158,191.151810 788.460022,191.277527 
	C801.776001,191.429733 815.092590,191.677261 828.403137,192.075272 
	C833.120667,192.216324 835.285156,189.664642 835.656128,185.600037 
	C836.123413,180.481049 835.991028,175.305481 836.072571,170.153625 
	C836.156799,164.836365 833.879761,162.627853 828.465088,162.635895 
	C812.637939,162.659424 796.810791,162.677170 780.983643,162.671646 
	C779.391785,162.671082 777.799927,162.496750 776.323181,162.409836 
	C776.323181,150.925339 776.323181,140.014450 776.323181,128.654694 
	C778.504333,128.654694 780.307129,128.654861 782.109924,128.654694 
	C797.275574,128.653244 812.441284,128.625336 827.606812,128.669525 
	C831.224365,128.680069 833.832642,127.761337 834.020081,123.519058 
	C834.254883,118.204521 834.702515,112.899017 834.913269,107.583862 
	C835.146484,101.701660 833.496460,100.031166 827.754944,100.028404 
	C812.257141,100.020950 796.759338,100.024864 781.261536,100.005295 
	C779.822021,100.003479 778.382690,99.866745 777.004395,99.795799 
	C777.004395,89.672028 777.004395,79.966248 777.004395,70.401199 
	C794.094482,70.401199 810.730774,70.246635 827.361328,70.487442 
	C832.964844,70.568581 834.993347,69.332558 835.296082,63.614590 
	C835.559631,58.635761 835.768494,53.651909 835.876404,48.667564 
	C835.991150,43.366901 833.984070,41.263641 828.793640,41.258339 
	C804.632507,41.233643 780.471436,41.238121 756.310303,41.262104 
	C748.050659,41.270306 745.700195,44.323914 747.542603,53.567509 
M194.500107,41.249950 
	C185.501480,41.250515 176.502716,41.222404 167.504257,41.261639 
	C161.410599,41.288208 159.766159,42.641407 159.235672,48.717842 
	C158.948700,52.004940 159.450806,55.352627 159.398102,58.669823 
	C159.043640,80.980698 158.516006,103.289459 158.281479,125.601402 
	C158.076736,145.080292 158.304108,164.563995 158.060287,184.042053 
	C158.003983,188.540100 159.876175,190.661255 163.952438,190.943344 
	C168.598053,191.264832 173.272751,191.179993 177.935181,191.241852 
	C185.302216,191.339630 187.939774,189.045334 188.063736,181.596817 
	C188.229279,171.651215 187.989822,161.699203 187.954910,151.749832 
	C187.928391,144.194199 187.949646,136.638397 187.949646,128.657806 
	C190.443817,128.657806 192.248459,128.657867 194.053101,128.657791 
	C209.217575,128.657196 224.382050,128.646698 239.546494,128.663391 
	C243.036255,128.667236 245.878860,128.027069 246.054764,123.655075 
	C246.275269,118.174088 246.735565,112.702248 246.926529,107.220680 
	C247.119232,101.688759 245.442200,100.049431 239.919128,100.043060 
	C224.589279,100.025360 209.259415,100.020775 193.929565,100.011330 
	C192.196960,100.010262 190.464355,100.011192 188.623062,100.011192 
	C188.623062,89.608070 188.623062,80.042892 188.623062,70.288712 
	C205.550888,70.288712 222.172470,70.076981 238.783844,70.396858 
	C245.093170,70.518364 246.974472,69.527809 247.304672,63.231041 
	C247.556656,58.425476 247.803253,53.618416 247.950928,48.808910 
	C248.116196,43.426186 245.907867,41.248730 240.479401,41.249451 
	C225.486313,41.251442 210.493210,41.250034 194.500107,41.249950 
M74.570198,151.663483 
	C74.570198,144.121109 74.570198,136.578735 74.570198,128.658813 
	C77.253632,128.658813 79.064461,128.658875 80.875290,128.658813 
	C95.871056,128.658310 110.866905,128.686523 125.862541,128.642258 
	C131.404282,128.625916 132.558655,127.385422 132.791397,121.932396 
	C132.997086,117.113663 133.359207,112.301468 133.551895,107.482368 
	C133.784775,101.658005 132.165543,100.047211 126.325455,100.044540 
	C110.830803,100.037445 95.336128,100.030708 79.841515,100.000351 
	C78.403694,99.997536 76.966202,99.827515 75.558281,99.737038 
	C75.558281,89.658966 75.558281,79.954987 75.558281,70.473045 
	C92.792488,70.473045 109.599174,70.352127 126.402206,70.547020 
	C131.415802,70.605179 133.657028,69.260559 133.942337,64.261147 
	C134.245468,58.949406 134.408798,53.625626 134.468826,48.305244 
	C134.526398,43.199387 132.586914,41.238003 127.618050,41.235233 
	C103.462601,41.221775 79.307114,41.234001 55.151657,41.255878 
	C47.770355,41.262562 45.930389,42.969772 45.794918,50.247921 
	C45.550362,63.386604 45.333759,76.526970 45.262657,89.667480 
	C45.091404,121.318718 45.073738,152.970947 44.821980,184.621414 
	C44.786774,189.047867 47.085297,190.673859 50.746185,190.952667 
	C55.221424,191.293518 59.731838,191.184555 64.227394,191.243958 
	C72.066711,191.347580 74.703484,188.950333 74.818085,180.974350 
	C74.953941,171.518906 74.775299,162.058960 74.570198,151.663483 
M1003.120483,142.600403 
	C1003.550659,119.135948 1004.035583,95.672302 1004.379700,72.206589 
	C1004.492004,64.547737 1004.354126,56.879845 1004.114441,49.222855 
	C1003.915161,42.855892 1002.167053,41.282806 995.973083,41.259087 
	C991.474304,41.241856 986.974243,41.195934 982.476868,41.276806 
	C976.612183,41.382271 973.974426,44.192356 973.987183,49.943958 
	C974.014160,62.088200 974.028015,74.232925 973.951782,86.376846 
	C973.752136,118.189224 973.489502,150.001190 973.278870,181.813507 
	C973.225830,189.823685 974.400818,191.152283 982.377319,191.200500 
	C1000.372009,191.309265 1018.368408,191.161331 1036.362549,191.307281 
	C1040.833252,191.343536 1042.966797,189.235916 1043.139648,185.155334 
	C1043.413696,178.687881 1043.467285,172.203613 1043.359253,165.730713 
	C1043.307129,162.605743 1041.569336,161.022339 1038.147705,161.175827 
	C1033.325317,161.392166 1028.485962,161.231049 1023.653931,161.231125 
	C1016.897583,161.231232 1010.141174,161.231155 1003.119812,161.231155 
	C1003.119812,154.854279 1003.119812,149.214905 1003.120483,142.600403 
z"/>
<path fill="#020404" opacity="1.000000" stroke="none" 
	d="
M581.182678,122.141167 
	C576.055908,141.159836 570.966797,159.765625 565.996887,178.403198 
	C563.087280,189.314484 560.279846,191.473206 548.683350,191.166779 
	C533.948120,190.777435 533.693481,190.849426 529.651855,176.553650 
	C523.905518,156.228531 518.588562,135.782150 513.058594,115.395630 
	C512.416565,113.028801 511.586365,110.713028 509.739349,108.291130 
	C509.338226,109.546356 508.883301,110.787239 508.544128,112.058983 
	C503.571289,130.704498 498.593750,149.348816 493.666595,168.006454 
	C492.393341,172.827744 491.420959,177.730835 490.068970,182.528305 
	C488.863922,186.804291 486.305847,190.246307 481.602631,190.626801 
	C475.823059,191.094360 469.937042,191.422760 464.198090,190.831100 
	C459.858612,190.383713 457.744263,186.661499 456.624115,182.487320 
	C450.454956,159.498520 444.200439,136.532654 437.990936,113.554665 
	C432.303711,92.509407 426.623474,71.462242 420.968262,50.408367 
	C419.229340,43.934559 421.229431,41.315945 427.886688,41.263851 
	C432.218689,41.229954 436.556061,41.135914 440.882385,41.298473 
	C446.865875,41.523312 449.836975,43.619778 451.364868,49.412395 
	C455.100647,63.575806 458.567871,77.810303 462.110565,92.024323 
	C465.327759,104.932343 468.497498,117.852188 471.713806,130.760437 
	C471.822296,131.195984 472.208160,131.562393 472.751740,132.407135 
	C473.334473,131.098145 473.918823,130.152145 474.189728,129.123611 
	C480.967896,103.387314 487.757843,77.653946 494.439667,51.892563 
	C496.744202,43.007542 498.758179,41.294384 507.790924,41.247318 
	C523.445618,41.165745 523.690369,39.355717 527.919922,56.398209 
	C534.011353,80.942848 540.082092,105.492622 546.177063,130.036392 
	C546.327820,130.643677 546.657837,131.206482 547.970764,131.967651 
	C548.882874,128.482376 549.788330,124.995346 550.708191,121.512123 
	C556.902954,98.055870 562.989197,74.570015 569.370056,51.164467 
	C571.129639,44.710342 573.240906,40.487343 582.473511,41.208866 
	C586.117126,41.493618 589.802246,41.210209 593.467102,41.269428 
	C599.174988,41.361652 601.933594,44.526508 600.476318,49.953827 
	C595.302734,69.221970 589.890625,88.425919 584.641907,107.674095 
	C583.373962,112.323975 582.386719,117.050392 581.182678,122.141167 
z"/>
<path fill="#020404" opacity="1.000000" stroke="none" 
	d="
M313.543091,125.508072 
	C309.678131,119.074394 305.993927,112.962067 302.309692,106.849747 
	C302.004639,106.831955 301.699554,106.814156 301.394501,106.796356 
	C301.394501,111.580940 301.467957,116.366852 301.381592,121.149872 
	C301.035980,140.287720 300.943665,159.437164 300.155304,178.557465 
	C299.645081,190.932617 299.177246,190.937637 286.846527,191.098770 
	C283.521606,191.142212 280.170746,191.211823 276.874023,190.866516 
	C273.274353,190.489517 271.455353,188.572632 271.496094,184.521301 
	C271.760773,158.198074 271.745941,131.872116 271.979767,105.548447 
	C272.121704,89.564247 272.580536,73.583061 272.812012,57.599285 
	C272.857666,54.446941 272.328308,51.284988 272.395599,48.134548 
	C272.487946,43.814240 274.704865,41.314102 279.236145,41.268597 
	C279.569427,41.265247 279.902832,41.266388 280.236023,41.258747 
	C297.118164,40.871601 297.503235,40.650917 305.785492,55.108150 
	C314.289642,69.952736 321.921356,85.296501 329.972076,100.401978 
	C331.579681,103.418365 333.355194,106.345261 335.442078,109.993011 
	C341.142609,99.717789 346.251831,90.214218 351.639160,80.870995 
	C358.616608,68.770058 365.748810,56.756184 373.012512,44.825455 
	C373.831726,43.479870 375.871613,42.250927 377.449554,42.106716 
	C383.066040,41.593430 388.748474,41.184967 394.365204,41.489262 
	C398.758972,41.727303 400.322021,45.088715 400.340942,49.291176 
	C400.543396,94.259895 400.769623,139.228516 401.017975,184.197006 
	C401.046997,189.449646 399.747559,191.018402 394.283447,191.197693 
	C389.122498,191.367020 383.951385,191.294800 378.785767,191.237045 
	C373.141846,191.173950 371.638794,189.738281 371.507446,184.163055 
	C371.327667,176.531937 371.193573,168.898178 371.173828,161.265182 
	C371.126923,143.121323 371.158752,124.977280 370.280884,106.395584 
	C367.187988,111.711670 364.030701,116.991547 361.016357,122.351799 
	C355.644012,131.905075 350.494354,141.586105 344.990997,151.062393 
	C340.888336,158.126877 332.440857,157.838531 328.341736,150.771164 
	C323.506927,142.435303 318.599670,134.141479 313.543091,125.508072 
z"/>
<path fill="#020404" opacity="1.000000" stroke="none" 
	d="
M720.123169,138.000061 
	C719.974915,154.149658 719.803528,169.799072 719.694153,185.448944 
	C719.665710,189.526093 717.946289,191.705978 713.674622,191.563126 
	C708.184692,191.379501 702.679871,191.456818 697.204102,191.086578 
	C691.086853,190.672958 690.038635,188.691269 690.165100,182.731857 
	C690.497009,167.091507 690.462646,151.441406 690.326355,135.797348 
	C690.316772,134.696259 688.298889,132.684113 687.185974,132.663605 
	C674.898560,132.437073 662.605469,132.521179 649.594971,132.521179 
	C649.594971,134.721359 649.598389,136.489716 649.594482,138.258072 
	C649.559753,153.903717 649.546143,169.549469 649.472961,185.194931 
	C649.453735,189.311584 647.771301,191.825760 643.133362,191.590454 
	C637.650330,191.312286 632.146790,191.409454 626.668213,191.078384 
	C622.354492,190.817734 619.817078,189.098328 619.880005,183.908691 
	C620.211121,156.590073 620.134094,129.266800 620.358765,101.946472 
	C620.475220,87.795937 620.971558,73.648849 621.182800,59.498501 
	C621.229797,56.355534 620.882690,53.197044 620.569275,50.060467 
	C620.025330,44.617157 622.649109,41.386658 628.146484,41.294315 
	C633.140991,41.210419 638.149719,41.271778 643.135620,41.558094 
	C648.871155,41.887455 650.324036,43.628040 650.301086,49.421833 
	C650.235168,66.075920 650.161804,82.729980 650.091919,99.384048 
	C650.088501,100.188896 650.091370,100.993782 650.091370,102.153778 
	C663.656372,102.153778 676.887817,102.153778 690.625549,102.153778 
	C690.853149,97.219955 691.278748,92.292778 691.269104,87.366447 
	C691.244263,74.708961 691.041809,62.051662 690.878601,49.394703 
	C690.811157,44.165390 693.054565,41.429920 698.136230,41.321999 
	C703.460693,41.208920 708.796143,41.409084 714.121643,41.609459 
	C718.516541,41.774822 720.847778,44.141670 720.820984,48.599895 
	C720.712769,66.583473 720.590637,84.566986 720.451782,102.550362 
	C720.361816,114.200417 720.234009,125.850182 720.123169,138.000061 
z"/>
<path fill="#020404" opacity="1.000000" stroke="none" 
	d="
M859.769653,183.739883 
	C859.820923,164.775726 859.718994,146.282257 859.911377,127.791840 
	C860.150513,104.810188 860.659180,81.831436 860.976013,58.850384 
	C861.014771,56.043190 860.709778,53.213943 860.351318,50.422234 
	C859.633362,44.830643 862.376587,41.306137 868.056885,41.291462 
	C890.053955,41.234619 912.051392,41.311108 934.048645,41.327469 
	C936.878723,41.329575 939.709778,41.308720 942.538574,41.230717 
	C947.154114,41.103447 949.372986,43.511658 949.342346,47.925434 
	C949.305420,53.241398 949.151550,58.565845 948.778625,63.867649 
	C948.381165,69.516968 946.319946,70.524872 940.579895,70.432747 
	C923.957092,70.165955 907.327271,70.338310 890.322205,70.338310 
	C890.322205,79.974670 890.322205,89.544830 890.322205,99.775078 
	C891.943542,99.850616 893.691772,99.999763 895.440308,100.002930 
	C910.771423,100.030693 926.102539,100.023598 941.433655,100.046600 
	C946.830505,100.054703 948.460693,101.550209 948.323730,106.804146 
	C948.176270,112.455505 947.728821,118.098480 947.463379,123.747520 
	C947.258118,128.117188 944.334351,128.669891 940.861450,128.664368 
	C925.529419,128.639954 910.194580,128.815262 894.867065,128.552322 
	C890.483704,128.477127 889.065247,129.641541 889.264404,134.114059 
	C889.627380,142.263885 889.471191,150.443420 889.313782,158.606369 
	C889.256653,161.570679 890.107849,162.759827 893.236816,162.736221 
	C909.229370,162.615540 925.223755,162.743439 941.216187,162.620575 
	C947.402588,162.573059 949.689880,164.696548 949.511597,170.906113 
	C949.378113,175.556961 949.745972,180.254700 949.215637,184.853729 
	C948.498840,191.069580 946.236023,192.113205 940.141174,191.847443 
	C928.833618,191.354385 917.502136,191.351410 906.179749,191.270889 
	C893.514832,191.180817 880.847656,191.333344 868.183899,191.179794 
	C861.312622,191.096466 860.140259,189.932571 859.769653,183.739883 
z"/>
<path fill="#020404" opacity="1.000000" stroke="none" 
	d="
M747.501343,53.084629 
	C745.700195,44.323914 748.050659,41.270306 756.310303,41.262104 
	C780.471436,41.238121 804.632507,41.233643 828.793640,41.258339 
	C833.984070,41.263641 835.991150,43.366901 835.876404,48.667564 
	C835.768494,53.651909 835.559631,58.635761 835.296082,63.614590 
	C834.993347,69.332558 832.964844,70.568581 827.361328,70.487442 
	C810.730774,70.246635 794.094482,70.401199 777.004395,70.401199 
	C777.004395,79.966248 777.004395,89.672028 777.004395,99.795799 
	C778.382690,99.866745 779.822021,100.003479 781.261536,100.005295 
	C796.759338,100.024864 812.257141,100.020950 827.754944,100.028404 
	C833.496460,100.031166 835.146484,101.701660 834.913269,107.583862 
	C834.702515,112.899017 834.254883,118.204521 834.020081,123.519058 
	C833.832642,127.761337 831.224365,128.680069 827.606812,128.669525 
	C812.441284,128.625336 797.275574,128.653244 782.109924,128.654694 
	C780.307129,128.654861 778.504333,128.654694 776.323181,128.654694 
	C776.323181,140.014450 776.323181,150.925339 776.323181,162.409836 
	C777.799927,162.496750 779.391785,162.671082 780.983643,162.671646 
	C796.810791,162.677170 812.637939,162.659424 828.465088,162.635895 
	C833.879761,162.627853 836.156799,164.836365 836.072571,170.153625 
	C835.991028,175.305481 836.123413,180.481049 835.656128,185.600037 
	C835.285156,189.664642 833.120667,192.216324 828.403137,192.075272 
	C815.092590,191.677261 801.776001,191.429733 788.460022,191.277527 
	C777.462158,191.151810 766.460938,191.331467 755.462891,191.216049 
	C747.015564,191.127411 746.236084,189.788193 746.393921,181.491257 
	C746.675964,166.668610 746.362793,151.835739 746.505554,137.009140 
	C746.773254,109.194511 747.188660,81.381302 747.501343,53.084629 
z"/>
<path fill="#020505" opacity="1.000000" stroke="none" 
	d="
M195.000122,41.249962 
	C210.493210,41.250034 225.486313,41.251442 240.479401,41.249451 
	C245.907867,41.248730 248.116196,43.426186 247.950928,48.808910 
	C247.803253,53.618416 247.556656,58.425476 247.304672,63.231041 
	C246.974472,69.527809 245.093170,70.518364 238.783844,70.396858 
	C222.172470,70.076981 205.550888,70.288712 188.623062,70.288712 
	C188.623062,80.042892 188.623062,89.608070 188.623062,100.011192 
	C190.464355,100.011192 192.196960,100.010262 193.929565,100.011330 
	C209.259415,100.020775 224.589279,100.025360 239.919128,100.043060 
	C245.442200,100.049431 247.119232,101.688759 246.926529,107.220680 
	C246.735565,112.702248 246.275269,118.174088 246.054764,123.655075 
	C245.878860,128.027069 243.036255,128.667236 239.546494,128.663391 
	C224.382050,128.646698 209.217575,128.657196 194.053101,128.657791 
	C192.248459,128.657867 190.443817,128.657806 187.949646,128.657806 
	C187.949646,136.638397 187.928391,144.194199 187.954910,151.749832 
	C187.989822,161.699203 188.229279,171.651215 188.063736,181.596817 
	C187.939774,189.045334 185.302216,191.339630 177.935181,191.241852 
	C173.272751,191.179993 168.598053,191.264832 163.952438,190.943344 
	C159.876175,190.661255 158.003983,188.540100 158.060287,184.042053 
	C158.304108,164.563995 158.076736,145.080292 158.281479,125.601402 
	C158.516006,103.289459 159.043640,80.980698 159.398102,58.669823 
	C159.450806,55.352627 158.948700,52.004940 159.235672,48.717842 
	C159.766159,42.641407 161.410599,41.288208 167.504257,41.261639 
	C176.502716,41.222404 185.501480,41.250515 195.000122,41.249962 
z"/>
<path fill="#020505" opacity="1.000000" stroke="none" 
	d="
M74.651581,152.132233 
	C74.775299,162.058960 74.953941,171.518906 74.818085,180.974350 
	C74.703484,188.950333 72.066711,191.347580 64.227394,191.243958 
	C59.731838,191.184555 55.221424,191.293518 50.746185,190.952667 
	C47.085297,190.673859 44.786774,189.047867 44.821980,184.621414 
	C45.073738,152.970947 45.091404,121.318718 45.262657,89.667480 
	C45.333759,76.526970 45.550362,63.386604 45.794918,50.247921 
	C45.930389,42.969772 47.770355,41.262562 55.151657,41.255878 
	C79.307114,41.234001 103.462601,41.221775 127.618050,41.235233 
	C132.586914,41.238003 134.526398,43.199387 134.468826,48.305244 
	C134.408798,53.625626 134.245468,58.949406 133.942337,64.261147 
	C133.657028,69.260559 131.415802,70.605179 126.402206,70.547020 
	C109.599174,70.352127 92.792488,70.473045 75.558281,70.473045 
	C75.558281,79.954987 75.558281,89.658966 75.558281,99.737038 
	C76.966202,99.827515 78.403694,99.997536 79.841515,100.000351 
	C95.336128,100.030708 110.830803,100.037445 126.325455,100.044540 
	C132.165543,100.047211 133.784775,101.658005 133.551895,107.482368 
	C133.359207,112.301468 132.997086,117.113663 132.791397,121.932396 
	C132.558655,127.385422 131.404282,128.625916 125.862541,128.642258 
	C110.866905,128.686523 95.871056,128.658310 80.875290,128.658813 
	C79.064461,128.658875 77.253632,128.658813 74.570198,128.658813 
	C74.570198,136.578735 74.570198,144.121109 74.651581,152.132233 
z"/>
<path fill="#020303" opacity="1.000000" stroke="none" 
	d="
M1003.120117,143.087967 
	C1003.119812,149.214905 1003.119812,154.854279 1003.119812,161.231155 
	C1010.141174,161.231155 1016.897583,161.231232 1023.653931,161.231125 
	C1028.485962,161.231049 1033.325317,161.392166 1038.147705,161.175827 
	C1041.569336,161.022339 1043.307129,162.605743 1043.359253,165.730713 
	C1043.467285,172.203613 1043.413696,178.687881 1043.139648,185.155334 
	C1042.966797,189.235916 1040.833252,191.343536 1036.362549,191.307281 
	C1018.368408,191.161331 1000.372009,191.309265 982.377319,191.200500 
	C974.400818,191.152283 973.225830,189.823685 973.278870,181.813507 
	C973.489502,150.001190 973.752136,118.189224 973.951782,86.376846 
	C974.028015,74.232925 974.014160,62.088200 973.987183,49.943958 
	C973.974426,44.192356 976.612183,41.382271 982.476868,41.276806 
	C986.974243,41.195934 991.474304,41.241856 995.973083,41.259087 
	C1002.167053,41.282806 1003.915161,42.855892 1004.114441,49.222855 
	C1004.354126,56.879845 1004.492004,64.547737 1004.379700,72.206589 
	C1004.035583,95.672302 1003.550659,119.135948 1003.120117,143.087967 
z"/>
</svg>