<svg version="1.1" id="Layer_1" xmlns="http://www.w3.org/2000/svg" xmlns:xlink="http://www.w3.org/1999/xlink" x="0px" y="0px"
	 width="100%" viewBox="0 0 811 149" enable-background="new 0 0 811 149" xml:space="preserve">
<path fill="#FFFFFF" opacity="1.000000" stroke="none" 
	d="
M597.000000,150.000000 
	C398.051666,150.000000 199.603363,150.000000 1.077520,150.000000 
	C1.077520,100.398048 1.077520,50.795940 1.077520,1.096916 
	C271.333313,1.096916 541.666626,1.096916 811.971924,1.096916 
	C811.971924,50.729935 811.971924,100.364975 811.971924,150.000000 
	C740.462585,150.000000 668.981323,150.000000 597.000000,150.000000 
M23.426109,122.808434 
	C29.600584,122.830437 35.775059,122.852440 42.562088,123.044746 
	C42.975861,123.004364 43.389637,122.963982 44.763119,122.993713 
	C65.222282,122.964989 85.681442,122.936256 106.745239,123.074585 
	C107.159180,123.018280 107.573112,122.961975 108.926102,122.976608 
	C114.299423,122.959282 119.672752,122.941956 125.611565,123.071228 
	C125.989395,123.027870 126.367233,122.984512 127.712883,122.998009 
	C148.740967,122.942543 169.769058,122.887085 191.752655,122.955391 
	C197.835861,122.655777 203.919083,122.356163 210.383347,122.844658 
	C229.927567,122.856491 249.471771,122.868317 269.934906,123.023193 
	C276.358521,122.952621 282.782135,122.882050 290.108185,122.949608 
	C311.401855,122.923683 332.695496,122.897766 354.731750,122.983566 
	C356.160339,122.688087 357.588959,122.392609 359.410156,122.868721 
	C370.603363,122.869804 381.796570,122.870880 393.732635,122.983582 
	C395.162079,122.688812 396.591492,122.394043 398.414398,122.868225 
	C420.260651,122.866539 442.106873,122.864861 464.889679,122.965744 
	C470.950653,122.689590 477.011658,122.413437 483.516144,122.859001 
	C496.308197,122.856155 509.100220,122.853317 522.835571,122.962105 
	C528.902039,122.678680 534.968567,122.395256 541.452637,122.868202 
	C547.381287,122.891190 553.309937,122.914185 559.820251,123.099701 
	C560.217468,123.030289 560.614624,122.960876 561.948730,122.959801 
	C582.961670,122.937729 603.974670,122.915649 625.608154,123.047089 
	C626.024963,123.001503 626.441772,122.955917 627.809570,122.994347 
	C633.855652,122.948441 639.901733,122.902534 646.882019,122.973305 
	C668.968811,122.923988 691.055664,122.874680 714.052734,122.962181 
	C720.155579,122.966927 726.258484,122.971680 732.816528,123.153206 
	C733.140991,123.090218 733.465393,123.027237 734.772339,122.993324 
	C752.027344,122.995110 769.282532,123.021072 786.537231,122.954849 
	C787.987671,122.949287 789.435730,122.324829 790.967896,121.056053 
	C790.961243,114.806175 790.954590,108.556305 790.995789,101.331726 
	C790.995789,74.614693 790.995789,47.897659 790.995789,21.126875 
	C777.911194,21.126875 765.448853,21.126875 752.064697,21.006329 
	C745.445618,21.030478 738.826538,21.054626 731.247864,21.004766 
	C725.476929,21.040756 719.705933,21.076744 713.022095,20.989767 
	C690.663635,21.040051 668.305115,21.090334 645.025208,21.009790 
	C639.061340,21.058565 633.097473,21.107340 626.186157,21.049114 
	C603.843201,21.062561 581.500305,21.076008 558.205139,21.005644 
	C552.495972,21.051010 546.786865,21.096375 540.260010,21.325788 
	C534.206726,21.532288 528.153442,21.738789 521.620911,21.209576 
	C508.794220,21.189907 495.967529,21.170238 482.305603,21.306679 
	C476.255585,21.527916 470.205536,21.749155 463.695282,21.207195 
	C457.466583,21.182537 451.237854,21.157881 444.076935,21.020620 
	C436.761383,21.044943 429.445801,21.069267 421.167480,21.005169 
	C404.127747,21.048668 387.087982,21.092169 369.110779,21.026041 
	C361.963715,21.086632 354.816650,21.147223 346.795135,21.054932 
	C341.547119,21.082010 336.299103,21.109087 330.112854,21.030170 
	C322.965363,21.088554 315.817871,21.146938 307.793854,21.054247 
	C301.636688,21.100275 295.479492,21.146303 288.385284,21.057011 
	C286.204010,21.089731 284.022766,21.122452 280.930298,21.040476 
	C253.323853,21.075205 225.717407,21.109934 197.196823,21.023476 
	C195.036621,21.077297 192.876434,21.131121 189.825165,21.052357 
	C184.558655,21.079668 179.292160,21.106981 173.096863,21.023821 
	C150.746140,21.055330 128.395416,21.086842 105.112862,21.009773 
	C100.426971,21.053574 95.741081,21.097374 90.120079,21.035843 
	C68.060982,21.075403 46.001888,21.114962 23.186264,21.530760 
	C23.166473,55.020592 23.146683,88.510422 23.426109,122.808434 
z"/>
<path fill="#121220" opacity="1.000000" stroke="none" 
	d="
M559.238586,122.937172 
	C553.309937,122.914185 547.381287,122.891190 541.619019,122.253815 
	C541.869507,120.983452 542.026855,120.327515 542.027161,119.671501 
	C542.040466,88.238937 542.052734,56.806343 542.000671,25.373852 
	C541.998352,23.962641 541.398987,22.552418 541.077698,21.141737 
	C546.786865,21.096375 552.495972,21.051010 558.765442,21.500813 
	C559.325745,28.397614 559.325745,34.799248 559.325745,41.299988 
	C582.355530,41.299988 604.532471,41.299988 627.133606,41.299988 
	C627.133606,34.392197 627.133606,27.774157 627.133606,21.156116 
	C633.097473,21.107340 639.061340,21.058565 645.503723,21.532845 
	C645.982239,28.455442 645.982239,34.854988 645.982239,41.259537 
	C668.918396,41.259537 691.119568,41.259537 713.934998,41.259537 
	C713.934998,34.326340 713.934998,27.719536 713.934998,21.112732 
	C719.705933,21.076744 725.476929,21.040756 731.830078,21.492590 
	C732.395386,55.645752 732.378357,89.311096 732.361328,122.976433 
	C726.258484,122.971680 720.155579,122.966927 713.583984,122.677383 
	C713.115173,122.392586 712.963074,121.986626 713.051514,121.526131 
	C713.140015,114.980194 713.140015,108.894753 713.140015,102.722359 
	C690.415283,102.722359 668.357788,102.722359 646.151917,102.722359 
	C646.151917,109.340096 646.151917,115.646828 646.083252,122.175354 
	C646.014648,122.397141 645.947815,122.856636 645.947815,122.856628 
	C639.901733,122.902534 633.855652,122.948441 627.301758,122.492859 
	C626.793884,115.578545 626.793884,109.165710 626.793884,102.825256 
	C604.098267,102.825256 582.050476,102.825256 559.238586,102.825256 
	C559.238586,109.727539 559.238586,116.332352 559.238586,122.937172 
M559.353577,67.598557 
	C559.353577,71.839081 559.353577,76.079597 559.353577,80.172348 
	C578.642395,80.172348 597.013489,80.172348 615.342651,80.172348 
	C615.342651,73.312546 615.342651,66.900780 615.342651,60.447880 
	C596.604248,60.447880 578.225525,60.447880 559.353882,60.447880 
	C559.353882,62.714275 559.353882,64.679131 559.353577,67.598557 
M645.986206,71.468124 
	C645.986206,74.391296 645.986206,77.314468 645.986206,80.260567 
	C665.026428,80.260567 683.392822,80.260567 701.809387,80.260567 
	C701.809387,73.494797 701.809387,67.073105 701.809387,60.398300 
	C683.195129,60.398300 664.838379,60.398300 645.986206,60.398300 
	C645.986206,63.926849 645.986206,67.210144 645.986206,71.468124 
z"/>
<path fill="#E36CB0" opacity="1.000000" stroke="none" 
	d="
M347.669586,21.207813 
	C354.816650,21.147223 361.963715,21.086632 369.625061,21.428625 
	C378.654663,39.965660 387.170013,58.100113 396.103516,77.125099 
	C398.581726,71.936951 400.610992,67.803375 402.542297,63.624516 
	C409.090271,49.456165 415.603638,35.271820 422.130249,21.093588 
	C429.445801,21.069267 436.761383,21.044943 444.440552,21.409761 
	C430.177032,53.751682 415.560211,85.709190 400.892273,117.643211 
	C400.162109,119.232819 398.988190,120.618584 398.020935,122.099274 
	C396.591492,122.394043 395.162079,122.688812 393.384155,122.559189 
	C387.738403,110.159401 382.441132,98.184013 376.765869,85.354118 
	C371.749481,96.295090 367.306976,106.100815 362.742706,115.849548 
	C361.719757,118.034492 360.270538,120.019882 359.017548,122.097137 
	C357.588959,122.392609 356.160339,122.688087 354.383453,122.559067 
	C348.906433,110.604462 343.820282,99.055183 338.639862,87.548347 
	C328.678223,65.421310 318.663239,43.318298 308.670380,21.205326 
	C315.817871,21.146938 322.965363,21.088554 330.628052,21.430555 
	C339.903015,40.313976 348.662842,58.797012 357.844238,78.169624 
	C360.634705,72.866592 363.150452,68.748917 364.960724,64.341484 
	C365.762756,62.388851 365.893463,59.504589 365.038025,57.633411 
	C359.445831,45.401348 353.499908,33.331009 347.669586,21.207813 
z"/>
<path fill="#E56DB1" opacity="1.000000" stroke="none" 
	d="
M540.668823,21.233761 
	C541.398987,22.552418 541.998352,23.962641 542.000671,25.373852 
	C542.052734,56.806343 542.040466,88.238937 542.027161,119.671501 
	C542.026855,120.327515 541.869507,120.983452 541.410217,121.875626 
	C534.968567,122.395256 528.902039,122.678680 522.367310,122.448174 
	C521.899109,108.208656 521.899109,94.483078 521.899109,80.794807 
	C508.867798,80.794807 496.641479,80.794807 484.142487,80.794807 
	C484.142487,93.157051 484.184021,105.134010 484.094910,117.109993 
	C484.082428,118.788200 483.429260,120.461647 483.072632,122.137283 
	C477.011658,122.413437 470.950653,122.689590 464.437134,122.456482 
	C464.041565,88.621613 464.098541,55.296001 464.155518,21.970392 
	C470.205536,21.749155 476.255585,21.527916 482.917358,21.594574 
	C483.735901,23.651993 484.112518,25.420635 484.121704,27.191185 
	C484.177460,37.951706 484.149536,48.712658 484.149536,59.634441 
	C496.953796,59.634441 509.281067,59.634441 522.100159,59.634441 
	C522.100159,46.825443 522.100159,34.385365 522.100159,21.945290 
	C528.153442,21.738789 534.206726,21.532288 540.668823,21.233761 
z"/>
<path fill="#131220" opacity="1.000000" stroke="none" 
	d="
M174.025650,21.134293 
	C179.292160,21.106981 184.558655,21.079668 190.262054,21.575954 
	C190.786575,44.733906 190.874191,67.368263 190.858826,90.451096 
	C190.818008,94.264587 190.880157,97.629593 190.845856,101.455414 
	C190.765305,108.888016 190.781219,115.859818 190.797150,122.831619 
	C169.769058,122.887085 148.740967,122.942543 127.136765,122.515221 
	C126.560638,108.309486 126.560638,94.586533 126.560638,80.365280 
	C140.071564,80.365280 152.661942,80.365280 165.407959,80.365280 
	C165.407959,73.308960 165.407959,66.772232 165.407959,59.752632 
	C152.312531,59.752632 139.581451,59.752632 126.984512,59.752632 
	C126.984512,53.509888 126.984512,47.762440 126.984512,41.504181 
	C142.734253,41.504181 158.133942,41.504181 174.025650,41.504181 
	C174.025650,34.367828 174.025650,27.751060 174.025650,21.134293 
z"/>
<path fill="#11111F" opacity="1.000000" stroke="none" 
	d="
M91.055191,21.141174 
	C95.741081,21.097374 100.426971,21.053574 105.619980,21.521145 
	C106.131607,55.657520 106.136108,89.282524 106.140602,122.907524 
	C85.681442,122.936256 65.222282,122.964989 44.227440,122.500374 
	C43.691761,108.275932 43.691761,94.544838 43.691761,80.378540 
	C57.198540,80.378540 69.800850,80.378540 82.517975,80.378540 
	C82.517975,73.378670 82.517975,66.832603 82.517975,59.799065 
	C69.439346,59.799065 56.698063,59.799065 44.067871,59.799065 
	C44.067871,53.541187 44.067871,47.782085 44.067871,41.528152 
	C59.796696,41.528152 75.205330,41.528152 91.055191,41.528152 
	C91.055191,34.397797 91.055191,27.769485 91.055191,21.141174 
z"/>
<path fill="#141221" opacity="1.000000" stroke="none" 
	d="
M308.232117,21.129787 
	C318.663239,43.318298 328.678223,65.421310 338.639862,87.548347 
	C343.820282,99.055183 348.906433,110.604462 354.012146,122.503204 
	C332.695496,122.897766 311.401855,122.923683 289.654236,122.672867 
	C289.200256,122.396126 289.042633,122.012093 289.167603,121.556335 
	C289.231842,93.396873 289.171143,65.693176 289.210358,37.561741 
	C289.241547,35.092800 289.172791,33.051601 289.201996,30.569660 
	C289.307404,27.150055 289.314880,24.171192 289.322327,21.192331 
	C295.479492,21.146303 301.636688,21.100275 308.232117,21.129787 
z"/>
<path fill="#121120" opacity="1.000000" stroke="none" 
	d="
M463.925415,21.588795 
	C464.098541,55.296001 464.041565,88.621613 463.968872,122.405197 
	C442.106873,122.864861 420.260651,122.866539 398.217651,122.483749 
	C398.988190,120.618584 400.162109,119.232819 400.892273,117.643211 
	C415.560211,85.709190 430.177032,53.751682 444.906677,21.466063 
	C451.237854,21.157881 457.466583,21.182537 463.925415,21.588795 
z"/>
<path fill="#E36CAF" opacity="1.000000" stroke="none" 
	d="
M106.442917,122.991058 
	C106.136108,89.282524 106.131607,55.657520 106.085892,21.575436 
	C128.395416,21.086842 150.746140,21.055330 173.561249,21.079056 
	C174.025650,27.751060 174.025650,34.367828 174.025650,41.504181 
	C158.133942,41.504181 142.734253,41.504181 126.984512,41.504181 
	C126.984512,47.762440 126.984512,53.509888 126.984512,59.752632 
	C139.581451,59.752632 152.312531,59.752632 165.407959,59.752632 
	C165.407959,66.772232 165.407959,73.308960 165.407959,80.365280 
	C152.661942,80.365280 140.071564,80.365280 126.560638,80.365280 
	C126.560638,94.586533 126.560638,108.309486 126.652847,122.486786 
	C126.367233,122.984512 125.989395,123.027870 125.027573,122.701538 
	C118.958069,122.523117 113.472565,122.714401 107.987053,122.905670 
	C107.573112,122.961975 107.159180,123.018280 106.442917,122.991058 
z"/>
<path fill="#E36CB0" opacity="1.000000" stroke="none" 
	d="
M90.587631,21.088509 
	C91.055191,27.769485 91.055191,34.397797 91.055191,41.528152 
	C75.205330,41.528152 59.796696,41.528152 44.067871,41.528152 
	C44.067871,47.782085 44.067871,53.541187 44.067871,59.799065 
	C56.698063,59.799065 69.439346,59.799065 82.517975,59.799065 
	C82.517975,66.832603 82.517975,73.378670 82.517975,80.378540 
	C69.800850,80.378540 57.198540,80.378540 43.691761,80.378540 
	C43.691761,94.544838 43.691761,108.275932 43.747585,122.465317 
	C43.389637,122.963982 42.975861,123.004364 41.943661,122.695450 
	C35.572186,122.221069 29.819139,122.095978 24.041630,121.504639 
	C23.992374,87.743774 23.967583,54.449146 23.942791,21.154522 
	C46.001888,21.114962 68.060982,21.075403 90.587631,21.088509 
z"/>
<path fill="#E46DB0" opacity="1.000000" stroke="none" 
	d="
M289.110413,37.989487 
	C289.171143,65.693176 289.231842,93.396873 288.696167,121.544830 
	C281.835999,121.972000 275.572266,121.954910 269.216858,121.481567 
	C269.125214,101.213409 269.125214,81.401520 269.125214,60.578892 
	C258.876984,69.870903 249.565155,78.313904 239.628937,87.323013 
	C238.301193,85.762108 237.142899,84.400414 236.023285,82.691620 
	C237.486923,80.140938 237.929886,78.520012 235.708176,75.988312 
	C227.959427,67.158401 220.655869,57.935631 213.249237,48.808498 
	C208.591537,43.068840 207.981110,43.004211 202.371063,48.098007 
	C200.903625,49.430389 199.259140,50.567066 197.704071,51.803814 
	C195.557785,53.510738 194.840576,55.334705 195.783142,58.272987 
	C197.190109,62.659012 197.868713,67.282761 198.793854,71.818298 
	C200.195099,78.687973 201.541946,85.568741 203.067230,93.224419 
	C198.423843,91.988602 194.692825,90.995605 190.961807,90.002617 
	C190.874191,67.368263 190.786575,44.733906 190.707581,21.642248 
	C192.876434,21.131121 195.036621,21.077297 197.777924,21.381929 
	C210.826828,33.128063 223.268082,44.545132 235.797272,55.864864 
	C237.302475,57.224785 239.284744,58.056667 241.199600,59.474724 
	C242.445297,64.195831 243.537292,68.575493 244.654129,73.054802 
	C253.766998,68.887962 255.058304,66.454178 253.796432,57.532970 
	C253.639542,56.423748 254.310562,54.773212 255.166306,54.014698 
	C260.231384,49.525101 265.326538,45.041451 270.731323,40.981461 
	C272.202148,39.876572 275.101013,39.424046 276.778839,40.092300 
	C280.793335,41.691208 284.239258,42.649216 287.254211,38.523003 
	C287.554291,38.112335 288.476807,38.156448 289.110413,37.989487 
z"/>
<path fill="#11111F" opacity="1.000000" stroke="none" 
	d="
M752.986511,21.126875 
	C765.448853,21.126875 777.911194,21.126875 790.995789,21.126875 
	C790.995789,47.897659 790.995789,74.614693 790.516602,101.908569 
	C777.806580,102.485420 765.575745,102.485420 752.986511,102.485420 
	C752.986511,74.900635 752.986511,48.013756 752.986511,21.126875 
z"/>
<path fill="#E36CAF" opacity="1.000000" stroke="none" 
	d="
M752.525635,21.066601 
	C752.986511,48.013756 752.986511,74.900635 752.986511,102.485420 
	C765.575745,102.485420 777.806580,102.485420 790.492676,102.395920 
	C790.954590,108.556305 790.961243,114.806175 790.466675,121.517334 
	C772.968567,121.988747 755.971619,121.971519 738.975037,122.050636 
	C737.245300,122.058693 735.518188,122.645844 733.789856,122.964256 
	C733.465393,123.027237 733.140991,123.090218 732.588928,123.064819 
	C732.378357,89.311096 732.395386,55.645752 732.309937,21.529594 
	C738.826538,21.054626 745.445618,21.030478 752.525635,21.066601 
z"/>
<path fill="#11111F" opacity="1.000000" stroke="none" 
	d="
M235.984589,83.038712 
	C237.142899,84.400414 238.301193,85.762108 239.628937,87.323013 
	C249.565155,78.313904 258.876984,69.870903 269.125214,60.578892 
	C269.125214,81.401520 269.125214,101.213409 269.133118,121.713852 
	C269.141022,122.402390 269.015991,122.880150 269.015991,122.880150 
	C249.471771,122.868317 229.927567,122.856491 210.217773,122.481773 
	C210.052216,122.118889 210.129303,122.095810 210.345490,121.986420 
	C210.895035,121.657242 210.965454,121.372421 210.843475,120.558434 
	C210.866150,114.734879 210.818253,109.375458 210.847748,103.552017 
	C210.925125,89.235611 210.925125,75.383240 210.925125,60.714333 
	C219.857727,68.672005 227.921158,75.855362 235.984589,83.038712 
z"/>
<path fill="#121120" opacity="1.000000" stroke="none" 
	d="
M241.045898,59.133286 
	C239.284744,58.056667 237.302475,57.224785 235.797272,55.864864 
	C223.268082,44.545132 210.826828,33.128063 198.234985,21.442524 
	C225.717407,21.109934 253.323853,21.075205 281.257111,21.382853 
	C280.056152,23.150640 278.528412,24.576054 276.718201,26.175846 
	C264.639130,37.277916 252.842499,48.205601 241.045898,59.133286 
z"/>
<path fill="#161322" opacity="1.000000" stroke="none" 
	d="
M483.294373,122.498146 
	C483.429260,120.461647 484.082428,118.788200 484.094910,117.109993 
	C484.184021,105.134010 484.142487,93.157051 484.142487,80.794807 
	C496.641479,80.794807 508.867798,80.794807 521.899109,80.794807 
	C521.899109,94.483078 521.899109,108.208656 521.895691,122.392357 
	C509.100220,122.853317 496.308197,122.856155 483.294373,122.498146 
z"/>
<path fill="#131220" opacity="1.000000" stroke="none" 
	d="
M421.648865,21.049377 
	C415.603638,35.271820 409.090271,49.456165 402.542297,63.624516 
	C400.610992,67.803375 398.581726,71.936951 396.103516,77.125099 
	C387.170013,58.100113 378.654663,39.965660 370.093781,21.483438 
	C387.087982,21.092169 404.127747,21.048668 421.648865,21.049377 
z"/>
<path fill="#141221" opacity="1.000000" stroke="none" 
	d="
M521.860535,21.577431 
	C522.100159,34.385365 522.100159,46.825443 522.100159,59.634441 
	C509.281067,59.634441 496.953796,59.634441 484.149536,59.634441 
	C484.149536,48.712658 484.177460,37.951706 484.121704,27.191185 
	C484.112518,25.420635 483.735901,23.651993 483.334961,21.516521 
	C495.967529,21.170238 508.794220,21.189907 521.860535,21.577431 
z"/>
<path fill="#DF6AAD" opacity="1.000000" stroke="none" 
	d="
M626.659912,21.102615 
	C627.133606,27.774157 627.133606,34.392197 627.133606,41.299988 
	C604.532471,41.299988 582.355530,41.299988 559.325745,41.299988 
	C559.325745,34.799248 559.325745,28.397614 559.241577,21.542717 
	C581.500305,21.076008 603.843201,21.062561 626.659912,21.102615 
z"/>
<path fill="#DF6AAD" opacity="1.000000" stroke="none" 
	d="
M713.478516,21.051250 
	C713.934998,27.719536 713.934998,34.326340 713.934998,41.259537 
	C691.119568,41.259537 668.918396,41.259537 645.982239,41.259537 
	C645.982239,34.854988 645.982239,28.455442 645.964478,21.598257 
	C668.305115,21.090334 690.663635,21.040051 713.478516,21.051250 
z"/>
<path fill="#E06BAD" opacity="1.000000" stroke="none" 
	d="
M559.529419,123.018433 
	C559.238586,116.332352 559.238586,109.727539 559.238586,102.825256 
	C582.050476,102.825256 604.098267,102.825256 626.793884,102.825256 
	C626.793884,109.165710 626.793884,115.578545 626.826233,122.450851 
	C626.441772,122.955917 626.024963,123.001503 624.989136,122.693527 
	C603.830627,122.250084 583.291077,122.153412 562.751465,122.105064 
	C562.172180,122.103699 561.591736,122.617752 561.011841,122.891472 
	C560.614624,122.960876 560.217468,123.030289 559.529419,123.018433 
z"/>
<path fill="#151322" opacity="1.000000" stroke="none" 
	d="
M347.232361,21.131372 
	C353.499908,33.331009 359.445831,45.401348 365.038025,57.633411 
	C365.893463,59.504589 365.762756,62.388851 364.960724,64.341484 
	C363.150452,68.748917 360.634705,72.866592 357.844238,78.169624 
	C348.662842,58.797012 339.903015,40.313976 331.097168,21.483551 
	C336.299103,21.109087 341.547119,21.082010 347.232361,21.131372 
z"/>
<path fill="#141221" opacity="1.000000" stroke="none" 
	d="
M359.213867,122.482925 
	C360.270538,120.019882 361.719757,118.034492 362.742706,115.849548 
	C367.306976,106.100815 371.749481,96.295090 376.765869,85.354118 
	C382.441132,98.184013 387.738403,110.159401 393.012756,122.503372 
	C381.796570,122.870880 370.603363,122.869804 359.213867,122.482925 
z"/>
<path fill="#E56DB1" opacity="1.000000" stroke="none" 
	d="
M210.770355,104.016045 
	C210.818253,109.375458 210.866150,114.734879 210.666229,120.689323 
	C210.207428,121.513992 210.111053,121.784477 210.129303,122.095810 
	C210.129303,122.095810 210.052216,122.118889 210.027252,122.087723 
	C203.919083,122.356163 197.835861,122.655777 191.274902,122.893509 
	C190.781219,115.859818 190.765305,108.888016 191.222061,101.494469 
	C193.404877,101.689537 195.166565,102.193283 196.815308,102.944824 
	C201.353790,105.013603 205.848221,107.144615 210.770355,104.016045 
z"/>
<path fill="#9E4E7F" opacity="1.000000" stroke="none" 
	d="
M23.564528,21.342640 
	C23.967583,54.449146 23.992374,87.743774 23.806700,121.513687 
	C23.596231,121.988983 23.126892,122.000252 23.126892,122.000252 
	C23.146683,88.510422 23.166473,55.020592 23.564528,21.342640 
z"/>
<path fill="#E46DB0" opacity="1.000000" stroke="none" 
	d="
M277.000641,26.001467 
	C278.528412,24.576054 280.056152,23.150640 281.712708,21.440201 
	C284.022766,21.122452 286.204010,21.089731 288.853821,21.124672 
	C289.314880,24.171192 289.307404,27.150055 288.824463,30.531673 
	C284.566223,29.290112 280.783417,27.645788 277.000641,26.001467 
z"/>
<path fill="#B0568D" opacity="1.000000" stroke="none" 
	d="
M712.963074,121.986626 
	C712.963074,121.986626 713.115173,122.392586 713.128784,122.608978 
	C691.055664,122.874680 668.968811,122.923988 646.414917,122.914970 
	C645.947815,122.856636 646.014648,122.397141 646.541321,122.194077 
	C669.033020,121.989540 690.998047,121.988083 712.963074,121.986626 
z"/>
<path fill="#A65286" opacity="1.000000" stroke="none" 
	d="
M561.480286,122.925636 
	C561.591736,122.617752 562.172180,122.103699 562.751465,122.105064 
	C583.291077,122.153412 603.830627,122.250084 624.678894,122.616776 
	C603.974670,122.915649 582.961670,122.937729 561.480286,122.925636 
z"/>
<path fill="#7A3F68" opacity="1.000000" stroke="none" 
	d="
M734.281128,122.978790 
	C735.518188,122.645844 737.245300,122.058693 738.975037,122.050636 
	C755.971619,121.971519 772.968567,121.988747 790.425171,121.983261 
	C789.435730,122.324829 787.987671,122.949287 786.537231,122.954849 
	C769.282532,123.021072 752.027344,122.995110 734.281128,122.978790 
z"/>
<path fill="#BF5D97" opacity="1.000000" stroke="none" 
	d="
M269.475464,122.951675 
	C269.015991,122.880150 269.141022,122.402390 269.224792,122.170105 
	C275.572266,121.954910 281.835999,121.972000 288.571167,122.000595 
	C289.042633,122.012093 289.200256,122.396126 289.203003,122.603806 
	C282.782135,122.882050 276.358521,122.952621 269.475464,122.951675 
z"/>
<path fill="#974B7B" opacity="1.000000" stroke="none" 
	d="
M23.276501,122.404343 
	C23.126892,122.000252 23.596231,121.988983 23.831161,121.979935 
	C29.819139,122.095978 35.572186,122.221069 41.637383,122.610306 
	C35.775059,122.852440 29.600584,122.830437 23.276501,122.404343 
z"/>
<path fill="#AE558B" opacity="1.000000" stroke="none" 
	d="
M108.456573,122.941147 
	C113.472565,122.714401 118.958069,122.523117 124.744827,122.628235 
	C119.672752,122.941956 114.299423,122.959282 108.456573,122.941147 
z"/>
<path fill="#E06BAD" opacity="1.000000" stroke="none" 
	d="
M713.051514,121.526131 
	C690.998047,121.988083 669.033020,121.989540 646.609985,121.972282 
	C646.151917,115.646828 646.151917,109.340096 646.151917,102.722359 
	C668.357788,102.722359 690.415283,102.722359 713.140015,102.722359 
	C713.140015,108.894753 713.140015,114.980194 713.051514,121.526131 
z"/>
<path fill="#DB68AA" opacity="1.000000" stroke="none" 
	d="
M559.353760,67.121269 
	C559.353882,64.679131 559.353882,62.714275 559.353882,60.447880 
	C578.225525,60.447880 596.604248,60.447880 615.342651,60.447880 
	C615.342651,66.900780 615.342651,73.312546 615.342651,80.172348 
	C597.013489,80.172348 578.642395,80.172348 559.353577,80.172348 
	C559.353577,76.079597 559.353577,71.839081 559.353760,67.121269 
z"/>
<path fill="#DD6AAC" opacity="1.000000" stroke="none" 
	d="
M645.986206,70.980782 
	C645.986206,67.210144 645.986206,63.926849 645.986206,60.398300 
	C664.838379,60.398300 683.195129,60.398300 701.809387,60.398300 
	C701.809387,67.073105 701.809387,73.494797 701.809387,80.260567 
	C683.392822,80.260567 665.026428,80.260567 645.986206,80.260567 
	C645.986206,77.314468 645.986206,74.391296 645.986206,70.980782 
z"/>
<path fill="#DB68A9" opacity="1.000000" stroke="none" 
	d="
M210.847748,103.552017 
	C205.848221,107.144615 201.353790,105.013603 196.815308,102.944824 
	C195.166565,102.193283 193.404877,101.689537 191.318512,101.033661 
	C190.880157,97.629593 190.818008,94.264587 190.858826,90.451096 
	C194.692825,90.995605 198.423843,91.988602 203.067230,93.224419 
	C201.541946,85.568741 200.195099,78.687973 198.793854,71.818298 
	C197.868713,67.282761 197.190109,62.659012 195.783142,58.272987 
	C194.840576,55.334705 195.557785,53.510738 197.704071,51.803814 
	C199.259140,50.567066 200.903625,49.430389 202.371063,48.098007 
	C207.981110,43.004211 208.591537,43.068840 213.249237,48.808498 
	C220.655869,57.935631 227.959427,67.158401 235.708176,75.988312 
	C237.929886,78.520012 237.486923,80.140938 236.023270,82.691628 
	C227.921158,75.855362 219.857727,68.672005 210.925125,60.714333 
	C210.925125,75.383240 210.925125,89.235611 210.847748,103.552017 
z"/>
<path fill="#DA68A9" opacity="1.000000" stroke="none" 
	d="
M276.718201,26.175846 
	C280.783417,27.645788 284.566223,29.290112 288.726501,30.972420 
	C289.172791,33.051601 289.241547,35.092800 289.210358,37.561745 
	C288.476807,38.156448 287.554291,38.112335 287.254211,38.523003 
	C284.239258,42.649216 280.793335,41.691208 276.778839,40.092300 
	C275.101013,39.424046 272.202148,39.876572 270.731323,40.981461 
	C265.326538,45.041451 260.231384,49.525101 255.166306,54.014698 
	C254.310562,54.773212 253.639542,56.423748 253.796432,57.532970 
	C255.058304,66.454178 253.766998,68.887962 244.654129,73.054802 
	C243.537292,68.575493 242.445297,64.195831 241.199600,59.474724 
	C252.842499,48.205601 264.639130,37.277916 276.718201,26.175846 
z"/>
<path fill="#DB68A9" opacity="1.000000" stroke="none" 
	d="
M210.345490,121.986420 
	C210.111053,121.784477 210.207428,121.513992 210.595657,121.153465 
	C210.965454,121.372421 210.895035,121.657242 210.345490,121.986420 
z"/>
</svg>